REM DIRINDEX 1\2,1\3,1\4,1\5
REM DIRNAME cjc004,folder01,folder02,folder03,folder04
TITLE ""
FILE "1Q_j_2101-2114.mp3" MP3
  TRACK 01 AUDIO
    TITLE "2:cjc004_0001"
    INDEX 01 00:00:00
  TRACK 02 AUDIO
    TITLE "0:"
    INDEX 01 00:01:60
  TRACK 03 AUDIO
    TITLE "3:cjc004_0002"
    INDEX 01 00:03:06
  TRACK 04 AUDIO
    TITLE "0:"
    INDEX 01 00:04:33
  TRACK 05 AUDIO
    TITLE "4:cjc004_0003"
    INDEX 01 00:04:66
  TRACK 06 AUDIO
    TITLE "0:"
    INDEX 01 00:06:02
  TRACK 07 AUDIO
    TITLE "5:cjc004_0004"
    INDEX 01 00:06:28
  TRACK 08 AUDIO
    TITLE "0:"
    INDEX 01 00:12:05
  TRACK 09 AUDIO
    TITLE "3:cjc004_0005"
    INDEX 01 00:12:65
  TRACK 10 AUDIO
    TITLE "0:"
    INDEX 01 00:13:73
  TRACK 11 AUDIO
    TITLE "4:cjc004_0006"
    INDEX 01 00:14:29
  TRACK 12 AUDIO
    TITLE "0:"
    INDEX 01 00:15:34
  TRACK 13 AUDIO
    TITLE "5:cjc004_0007"
    INDEX 01 00:15:58
  TRACK 14 AUDIO
    TITLE "0:"
    INDEX 01 00:19:73
  TRACK 15 AUDIO
    TITLE "3:cjc004_0008"
    INDEX 01 00:20:61
  TRACK 16 AUDIO
    TITLE "0:"
    INDEX 01 00:22:03
  TRACK 17 AUDIO
    TITLE "4:cjc004_0009"
    INDEX 01 00:22:32
  TRACK 18 AUDIO
    TITLE "0:"
    INDEX 01 00:24:37
  TRACK 19 AUDIO
    TITLE "5:cjc004_0010"
    INDEX 01 00:24:63
  TRACK 20 AUDIO
    TITLE "0:"
    INDEX 01 00:30:65
  TRACK 21 AUDIO
    TITLE "3:cjc004_0011"
    INDEX 01 00:31:51
  TRACK 22 AUDIO
    TITLE "0:"
    INDEX 01 00:32:74
  TRACK 23 AUDIO
    TITLE "4:cjc004_0012"
    INDEX 01 00:33:30
  TRACK 24 AUDIO
    TITLE "0:"
    INDEX 01 00:34:42
  TRACK 25 AUDIO
    TITLE "5:cjc004_0013"
    INDEX 01 00:34:71
  TRACK 26 AUDIO
    TITLE "0:"
    INDEX 01 00:41:32
  TRACK 27 AUDIO
    TITLE "3:cjc004_0014"
    INDEX 01 00:42:12
  TRACK 28 AUDIO
    TITLE "0:"
    INDEX 01 00:43:39
  TRACK 29 AUDIO
    TITLE "4:cjc004_0015"
    INDEX 01 00:43:70
  TRACK 30 AUDIO
    TITLE "0:"
    INDEX 01 00:45:04
  TRACK 31 AUDIO
    TITLE "5:cjc004_0016"
    INDEX 01 00:45:30
  TRACK 32 AUDIO
    TITLE "0:"
    INDEX 01 00:49:18
  TRACK 33 AUDIO
    TITLE "3:cjc004_0017"
    INDEX 01 00:49:74
  TRACK 34 AUDIO
    TITLE "0:"
    INDEX 01 00:52:04
  TRACK 35 AUDIO
    TITLE "4:cjc004_0018"
    INDEX 01 00:52:37
  TRACK 36 AUDIO
    TITLE "0:"
    INDEX 01 00:55:20
  TRACK 37 AUDIO
    TITLE "5:cjc004_0019"
    INDEX 01 00:55:50
  TRACK 38 AUDIO
    TITLE "0:"
    INDEX 01 01:00:23
  TRACK 39 AUDIO
    TITLE "3:cjc004_0020"
    INDEX 01 01:01:01
  TRACK 40 AUDIO
    TITLE "0:"
    INDEX 01 01:02:16
  TRACK 41 AUDIO
    TITLE "4:cjc004_0021"
    INDEX 01 01:02:42
  TRACK 42 AUDIO
    TITLE "0:"
    INDEX 01 01:03:63
  TRACK 43 AUDIO
    TITLE "5:cjc004_0022"
    INDEX 01 01:04:17
  TRACK 44 AUDIO
    TITLE "0:"
    INDEX 01 01:09:50
  TRACK 45 AUDIO
    TITLE "3:cjc004_0023"
    INDEX 01 01:10:33
  TRACK 46 AUDIO
    TITLE "0:"
    INDEX 01 01:11:43
  TRACK 47 AUDIO
    TITLE "4:cjc004_0024"
    INDEX 01 01:11:72
  TRACK 48 AUDIO
    TITLE "0:"
    INDEX 01 01:13:18
  TRACK 49 AUDIO
    TITLE "5:cjc004_0025"
    INDEX 01 01:13:44
  TRACK 50 AUDIO
    TITLE "0:"
    INDEX 01 01:18:27
  TRACK 51 AUDIO
    TITLE "3:cjc004_0026"
    INDEX 01 01:19:07
  TRACK 52 AUDIO
    TITLE "0:"
    INDEX 01 01:20:30
  TRACK 53 AUDIO
    TITLE "4:cjc004_0027"
    INDEX 01 01:20:63
  TRACK 54 AUDIO
    TITLE "0:"
    INDEX 01 01:22:48
  TRACK 55 AUDIO
    TITLE "5:cjc004_0028"
    INDEX 01 01:22:72
  TRACK 56 AUDIO
    TITLE "0:"
    INDEX 01 01:27:16
  TRACK 57 AUDIO
    TITLE "3:cjc004_0029"
    INDEX 01 01:27:69
  TRACK 58 AUDIO
    TITLE "0:"
    INDEX 01 01:29:11
  TRACK 59 AUDIO
    TITLE "4:cjc004_0030"
    INDEX 01 01:29:39
  TRACK 60 AUDIO
    TITLE "0:"
    INDEX 01 01:31:32
  TRACK 61 AUDIO
    TITLE "5:cjc004_0031"
    INDEX 01 01:31:59
  TRACK 62 AUDIO
    TITLE "0:"
    INDEX 01 01:35:16
  TRACK 63 AUDIO
    TITLE "3:cjc004_0032"
    INDEX 01 01:36:00
  TRACK 64 AUDIO
    TITLE "0:"
    INDEX 01 01:37:58
  TRACK 65 AUDIO
    TITLE "4:cjc004_0033"
    INDEX 01 01:38:14
  TRACK 66 AUDIO
    TITLE "0:"
    INDEX 01 01:39:31
  TRACK 67 AUDIO
    TITLE "5:cjc004_0034"
    INDEX 01 01:39:55
  TRACK 68 AUDIO
    TITLE "0:"
    INDEX 01 01:43:54
  TRACK 69 AUDIO
    TITLE "3:cjc004_0035"
    INDEX 01 01:44:34
  TRACK 70 AUDIO
    TITLE "0:"
    INDEX 01 01:45:69
  TRACK 71 AUDIO
    TITLE "4:cjc004_0036"
    INDEX 01 01:46:29
  TRACK 72 AUDIO
    TITLE "0:"
    INDEX 01 01:47:44
  TRACK 73 AUDIO
    TITLE "5:cjc004_0037"
    INDEX 01 01:47:68
  TRACK 74 AUDIO
    TITLE "0:"
    INDEX 01 01:52:08
  TRACK 75 AUDIO
    TITLE "3:cjc004_0038"
    INDEX 01 01:52:67
  TRACK 76 AUDIO
    TITLE "0:"
    INDEX 01 01:54:35
  TRACK 77 AUDIO
    TITLE "4:cjc004_0039"
    INDEX 01 01:54:66
  TRACK 78 AUDIO
    TITLE "0:"
    INDEX 01 01:56:16
  TRACK 79 AUDIO
    TITLE "5:cjc004_0040"
    INDEX 01 01:56:39
  TRACK 80 AUDIO
    TITLE "0:"
    INDEX 01 02:03:22
  TRACK 81 AUDIO
    TITLE "3:cjc004_0041"
    INDEX 01 02:04:02
  TRACK 82 AUDIO
    TITLE "0:"
    INDEX 01 02:05:19
  TRACK 83 AUDIO
    TITLE "4:cjc004_0042"
    INDEX 01 02:05:54
  TRACK 84 AUDIO
    TITLE "0:"
    INDEX 01 02:07:16
  TRACK 85 AUDIO
    TITLE "5:cjc004_0043"
    INDEX 01 02:07:41
  TRACK 86 AUDIO
    TITLE "0:"
    INDEX 01 02:13:63
